<svg width="76" height="62" viewBox="0 0 76 62" fill="none" xmlns="http://www.w3.org/2000/svg">
<path d="M74.124 58.8252H73.1506C63.8307 52.6271 55.9078 44.5512 49.8891 35.1145C53.153 33.2451 55.7728 30.4292 57.4021 27.0391C59.0315 23.6489 59.5936 19.8441 59.0142 16.1277C58.4348 12.4112 56.7411 8.9581 54.1572 6.2248C51.5732 3.4915 48.2206 1.60673 44.5425 0.819648C40.8644 0.0325689 37.0341 0.380242 33.5578 1.81671C30.0816 3.25317 27.1231 5.71078 25.0735 8.86466C23.0239 12.0185 21.9797 15.7202 22.0789 19.4802C22.1782 23.2403 23.4162 26.8817 25.6293 29.9231C24.6059 31.7076 22.8838 34.5903 20.0385 39.1203C14.2231 48.5048 4.63901 57.1405 2.77958 58.8252H1.7438C1.41283 58.8252 1.09541 58.9567 0.861376 59.1907C0.627343 59.4248 0.495865 59.7422 0.495865 60.0731C0.495865 60.4041 0.627343 60.7215 0.861376 60.9556C1.09541 61.1896 1.41283 61.3211 1.7438 61.3211H74.124C74.4549 61.3211 74.7724 61.1896 75.0064 60.9556C75.2404 60.7215 75.3719 60.4041 75.3719 60.0731C75.3719 59.7422 75.2404 59.4248 75.0064 59.1907C74.7724 58.9567 74.4549 58.8252 74.124 58.8252ZM24.5685 19.1035C24.5713 16.2828 25.3175 13.5127 26.7319 11.0722C28.1463 8.63179 30.1789 6.60723 32.6249 5.20255C35.0709 3.79787 37.844 3.06269 40.6647 3.07108C43.4853 3.07947 46.254 3.83113 48.6916 5.25034C51.1292 6.66955 53.1498 8.70616 54.5496 11.155C55.9494 13.6038 56.6791 16.3783 56.6652 19.1989C56.6512 22.0196 55.894 24.7867 54.47 27.2215C53.046 29.6564 51.0054 31.6729 48.5538 33.0678C47.7676 31.8199 47.0188 30.572 46.2826 29.324C45.5463 28.0761 44.9098 27.0653 44.1736 25.9421C43.8295 25.3252 43.3556 24.7904 42.7847 24.3746C42.2137 23.9587 41.5592 23.6718 40.8665 23.5336C40.3331 23.4605 39.79 23.5065 39.2765 23.6684C38.7629 23.8302 38.2916 24.1038 37.8964 24.4696C37.1497 25.1182 36.3526 25.7065 35.5129 26.2292C34.8266 26.7211 34.0376 27.0509 33.2053 27.1936C32.3731 27.3362 31.5193 27.2881 30.7083 27.0528C30.0933 26.8618 29.4394 26.8326 28.8098 26.9681C28.1802 27.1037 27.5962 27.3993 27.1143 27.8265C25.4469 25.2231 24.5632 22.1951 24.5685 19.1035ZM25.6043 34.9148C26.6401 33.2176 27.5012 31.745 28.1875 30.5221V30.4597C28.228 30.4059 28.2616 30.3472 28.2874 30.285C28.4291 29.9707 28.6766 29.7162 28.9867 29.5657C29.2969 29.4152 29.65 29.3782 29.9845 29.4613C31.141 29.8002 32.3586 29.8764 33.5483 29.6842C34.738 29.4921 35.8697 29.0364 36.8607 28.3507C37.8096 27.756 38.7108 27.0884 39.5562 26.354C39.6783 26.2295 39.8272 26.1344 39.9915 26.076C40.1559 26.0176 40.3313 25.9975 40.5046 26.017C40.8366 26.1064 41.1465 26.2634 41.4149 26.4781C41.6833 26.6929 41.9045 26.9607 42.0645 27.265L44.1736 30.6219C45.4215 32.7683 46.8067 34.9897 48.3042 37.2734C48.1439 37.8162 47.8905 38.3272 47.5554 38.7834C47.1266 39.3112 46.8193 39.927 46.6554 40.587C46.4915 41.247 46.475 41.935 46.607 42.6021C46.607 42.6021 46.607 42.6894 46.4448 42.7144C44.486 41.3313 42.7229 39.69 41.2035 37.835C40.9154 37.4635 40.5284 37.1809 40.0868 37.0197C39.6453 36.8586 39.1672 36.8254 38.7076 36.924C38.2458 37.0047 37.8144 37.2085 37.4586 37.5137C37.1029 37.819 36.8359 38.2145 36.6859 38.6586C36.3864 39.5197 36.1244 41.2418 37.1102 46.1462C35.6252 43.5131 34.3274 40.9673 33.8282 39.9065C33.642 39.5146 33.3605 39.1756 33.0096 38.9206C32.6586 38.6655 32.2492 38.5025 31.819 38.4464C31.383 38.3904 30.9399 38.4444 30.5301 38.6035C30.1203 38.7626 29.7568 39.0218 29.4729 39.3574C29.2607 39.607 29.0361 39.8316 28.8115 40.0688C28.6362 40.1771 28.4904 40.3271 28.3872 40.5055C27.3356 41.5313 26.1521 42.4126 24.868 43.1262C24.868 43.1262 24.7682 43.1262 24.6683 43.0014C25.558 40.4045 25.8773 37.6463 25.6043 34.9148ZM6.48595 58.8252C12.4315 53.3743 17.6946 47.2229 22.16 40.5055L23.0585 39.0579C22.9688 40.122 22.7294 41.1681 22.3472 42.1653C22.1411 42.6595 22.0952 43.2059 22.2161 43.7276C22.337 44.2492 22.6186 44.7198 23.0211 45.073C23.4305 45.4395 23.9448 45.668 24.4912 45.7262C25.0377 45.7844 25.5885 45.6694 26.066 45.3974C26.4654 45.1853 26.8397 44.9357 27.2141 44.6986C26.2081 48.0054 24.8745 51.2034 23.2332 54.2453C23.1513 54.3887 23.0984 54.5468 23.0776 54.7107C23.0567 54.8745 23.0684 55.0408 23.1118 55.2002C23.1553 55.3595 23.2297 55.5087 23.3308 55.6393C23.4319 55.7699 23.5578 55.8793 23.7012 55.9612C23.8446 56.0431 24.0027 56.096 24.1666 56.1169C24.3304 56.1377 24.4967 56.126 24.6561 56.0826C24.8154 56.0391 24.9646 55.9647 25.0952 55.8636C25.2258 55.7625 25.3352 55.6366 25.4171 55.4932C27.7184 51.2544 29.4393 46.7254 30.5336 42.028C30.8207 41.741 31.0952 41.454 31.3573 41.142C31.3573 41.142 31.4197 41.0796 31.5694 41.142C32.1185 42.2776 33.5786 45.1603 35.2259 48.0306C35.4243 48.4052 35.7205 48.7191 36.0831 48.9388C36.4457 49.1586 36.861 49.276 37.285 49.2785C37.5837 49.2791 37.8799 49.2241 38.1585 49.1163C38.6978 48.9207 39.1473 48.5354 39.4229 48.0323C39.6986 47.5293 39.7814 46.943 39.656 46.3833C38.6452 41.5663 38.8823 40.0313 39.0321 39.5945C39.0321 39.5945 39.0321 39.5072 39.2442 39.5945C40.1421 40.6753 41.1137 41.6927 42.1519 42.6395C42.1465 42.6934 42.1465 42.7478 42.1519 42.8017C44.6435 47.1906 47.7772 51.1823 51.449 54.6446C51.6835 54.8706 51.9969 54.996 52.3226 54.994C52.4907 54.9934 52.6569 54.9588 52.8113 54.8923C52.9657 54.8259 53.1051 54.7289 53.2211 54.6072C53.4535 54.3734 53.584 54.0571 53.584 53.7274C53.584 53.3977 53.4535 53.0814 53.2211 52.8476C50.8123 50.5306 48.6539 47.9665 46.7817 45.1978C47.1397 45.1723 47.488 45.0699 47.8028 44.8975C48.1177 44.7252 48.3916 44.487 48.606 44.1991C48.8204 43.9113 48.9702 43.5806 49.0452 43.2296C49.1202 42.8786 49.1186 42.5156 49.0405 42.1653C48.9657 41.8099 48.9777 41.4417 49.0754 41.092C49.1732 40.7422 49.3538 40.4212 49.6021 40.1561L49.914 39.6694C55.1181 47.0648 61.5207 53.5391 68.8577 58.8252H6.48595Z" fill="black"/>
</svg>
